<svg style="width:100%;height:100%;" viewBox="0 0 1046 200" fill="none" xmlns="http://www.w3.org/2000/svg">
<g clip-path="url(#clip0_61_623)">
<path d="M117.49 0.800228C133.65 -2.23977 143.06 4.23023 150 16.0002C167.8 46.0736 185.663 76.1002 203.59 106.08C205.13 108.66 206.78 111.17 210 116.29C210.56 110.72 211 107.99 211.08 105.29C211.34 92.9002 210.86 80.4602 211.81 68.1302C213.91 40.9702 227.2 20.4502 251.13 7.46023C257.56 3.97023 265.2 0.930228 272.33 0.810228C310.82 0.160228 349.33 0.500228 387.92 0.500228C383.2 17.8702 378.66 21.5002 361.75 21.5002C339.62 21.5002 317.48 21.3402 295.35 21.6802C287.408 21.8795 279.49 22.6549 271.66 24.0002C254.74 26.7202 243.55 36.9102 238.66 52.9102C235.93 62.2412 234.401 71.8823 234.11 81.6002C233.25 102.82 233.24 124.08 233.2 145.32C233.2 165.75 242.5 175.89 262.87 176.26C293.87 176.81 324.81 176.49 355.78 176.53C357.11 176.53 358.44 176.53 359.78 176.53C378.83 176.3 381.99 178.53 390.46 198.53C387.21 198.76 384.35 199.13 381.46 199.13C342.95 199.13 304.46 198.94 265.91 199.24C244 199.41 227.99 190.78 216.84 171.52C185.58 117.52 153.74 63.9402 122.16 10.1602C120.62 7.46023 119.42 4.67023 117.49 0.800228Z" fill="#0098DB"/>
<path d="M617 199C608 199 601.9 199 595.84 199C588.23 198.95 584.09 193.55 579.9 188.4C560.9 165.06 541.74 141.89 523.23 118.18C517.76 111.18 512.01 108.32 503.16 108.58C482.38 109.18 461.57 108.75 440.78 108.83C436.92 108.83 433.07 109.29 427.83 109.62V198.18H407.67V87.84C412.67 87.84 417.39 87.84 422.09 87.84C455.72 87.69 489.36 87.84 522.98 87.18C534.433 86.8503 545.824 85.3661 556.98 82.75C567.08 80.46 576.74 75.81 577.55 63.35C578.4 50.35 575.16 38.48 563.46 31C558.662 27.8616 553.304 25.6752 547.68 24.56C538.106 22.8323 528.407 21.8858 518.68 21.73C485.05 21.34 451.41 21.46 417.78 21.39C413.53 21.39 409.27 21.39 404.5 21.39C412.33 2.45 415.75 0 432.79 0.07C465.98 0.18 499.19 -0.43 532.35 0.68C544.664 1.21939 556.798 3.83625 568.24 8.42C597.6 20 605.09 49.28 598 75.55C594 90.62 582.78 99.08 568.47 103.37C560.92 105.64 552.98 106.59 545.02 108.17C542.56 113.17 547.23 115.26 549.48 117.95C569.05 141.37 588.83 164.61 608.48 187.95C610.8 190.62 612.8 193.51 617 199Z" fill="#0098DB"/>
<path d="M780.45 1.22991C797.45 -1.59009 803.98 0.899906 812.08 14.4599C828.42 41.7799 844.37 69.3299 860.53 96.7599C863.84 102.38 867.36 107.88 873.03 113.04V0.999907H894.38C894.56 5.47991 894.88 10.1499 894.9 14.8099C895.11 55.0699 895.19 95.3399 895.49 135.6C895.514 142.234 896.045 148.857 897.08 155.41C899.16 168.28 906.24 174.86 919.23 176C928.91 176.85 938.65 177.34 948.36 177.41C976.24 177.6 1004.12 177.49 1032 177.5H1045.34C1038.02 196.85 1035.25 198.87 1017.57 198.89C985.27 198.89 952.96 198.67 920.66 199.16C902.9 199.43 890.24 192.16 881.44 176.98C848.9 120.733 816.287 64.5199 783.6 8.33991C782.419 6.03033 781.367 3.65664 780.45 1.22991Z" fill="#0098DB"/>
<path d="M102.85 20.1099C107.48 27.8999 110.97 33.8599 114.55 39.7599C117.76 45.0599 114.31 49.0099 111.9 53.1399C99.42 74.5332 86.9267 95.9165 74.42 117.29C72.26 121 70.36 124.87 67.62 130.03C72.46 130.3 75.79 130.63 79.12 130.63C103.91 130.63 128.76 131.68 153.47 130.27C169.47 129.36 178.35 135.52 183.47 151.06C179.98 151.31 176.7 151.75 173.42 151.75C137.56 151.8 101.7 152.11 65.85 151.55C57 151.42 52.1 154.07 48.33 162C44.16 170.74 38.01 178.54 33.79 187.26C29.3 196.52 22.72 200.49 12.64 199.26C9.28 198.84 5.88 198.8 0 198.42C34.17 138.36 67.87 80.1799 102.85 20.1099Z" fill="#0098DB"/>
<path d="M665.34 197.16C699.247 138.333 732.887 80.0002 766.26 22.1602C768.26 22.9102 768.72 22.9402 768.92 23.2102C783.23 42.3502 783.18 42.3202 771.2 62.6402C760 81.6468 748.863 100.697 737.79 119.79C736.07 122.79 734.53 125.79 731.88 130.71H746.43H818.03C837.94 130.71 837.94 130.71 848.48 150.71C834.3 152.97 820.41 151.53 806.62 151.78C792.05 152.04 777.46 151.83 762.87 151.83H719.63C713.73 161.47 706.63 170.7 702.08 181.04C695 197 684.3 203.24 665.34 197.16Z" fill="#0098DB"/>
<path d="M649 198.33H629.6V1.08984H649V198.33Z" fill="#0098DB"/>
<path d="M254 109.46V89.3398H383.09C379.22 95.8798 376.48 101.24 373 106.06C371.69 107.89 368.8 109.06 366.42 109.54C363.42 110.18 360.27 109.96 357.18 109.96C326.74 110.013 296.297 110.037 265.85 110.03C262.37 110 258.9 109.7 254 109.46Z" fill="#0098DB"/>
</g>
<defs>
<clipPath id="clip0_61_623">
<rect width="1045.34" height="199.45" fill="white"/>
</clipPath>
</defs>
</svg>
